<svg width="20" height="20" viewBox="0 0 20 20" fill="none" xmlns="http://www.w3.org/2000/svg">
<path d="M0 10C0 9.08333 0.118056 8.20139 0.354167 7.35417C0.590278 6.50694 0.927083 5.70833 1.36458 4.95833C1.80208 4.20833 2.32292 3.53472 2.92708 2.9375C3.53125 2.34028 4.20833 1.81944 4.95833 1.375C5.70833 0.930556 6.50347 0.59375 7.34375 0.364583C8.18403 0.135417 9.06944 0.0138889 10 0C10.9167 0 11.7986 0.118056 12.6458 0.354167C13.4931 0.590278 14.2882 0.927083 15.0313 1.36458C15.7743 1.80208 16.4514 2.32639 17.0625 2.9375C17.6736 3.54861 18.1944 4.22222 18.625 4.95833C19.0556 5.69444 19.3924 6.48958 19.6354 7.34375C19.8785 8.19792 20 9.08333 20 10C20 10.9167 19.8819 11.7986 19.6458 12.6458C19.4097 13.4931 19.0729 14.2917 18.6354 15.0417C18.1979 15.7917 17.6771 16.4653 17.0729 17.0625C16.4688 17.6597 15.7917 18.1806 15.0417 18.625C14.2917 19.0694 13.4965 19.4063 12.6563 19.6354C11.816 19.8646 10.9306 19.9861 10 20C9.07639 20 8.19097 19.8819 7.34375 19.6458C6.49653 19.4097 5.70139 19.0729 4.95833 18.6354C4.21528 18.1979 3.54167 17.6771 2.9375 17.0729C2.33333 16.4688 1.8125 15.7951 1.375 15.0521C0.9375 14.309 0.600694 13.5104 0.364583 12.6563C0.128472 11.8021 0.00694444 10.9167 0 10ZM6.33333 14.5C6.4375 14.5 6.54167 14.4792 6.64583 14.4375C6.75 14.3958 6.84375 14.3368 6.92708 14.2604L10 11.1771L13.0729 14.2604C13.1493 14.3368 13.2396 14.3958 13.3438 14.4375C13.4479 14.4792 13.5556 14.5 13.6667 14.5C13.9028 14.5 14.1007 14.4201 14.2604 14.2604C14.4201 14.1007 14.5 13.9028 14.5 13.6667C14.5 13.4306 14.4201 13.2326 14.2604 13.0729L11.1771 10L14.2604 6.92708C14.4201 6.76736 14.5 6.56944 14.5 6.33333C14.5 6.09722 14.4201 5.89931 14.2604 5.73958C14.1007 5.57986 13.9028 5.5 13.6667 5.5C13.4306 5.5 13.2326 5.57986 13.0729 5.73958L10 8.82292L6.92708 5.73958C6.76736 5.57986 6.56944 5.5 6.33333 5.5C6.09722 5.5 5.89931 5.57986 5.73958 5.73958C5.57986 5.89931 5.5 6.09722 5.5 6.33333C5.5 6.4375 5.52083 6.54167 5.5625 6.64583C5.60417 6.75 5.66319 6.84375 5.73958 6.92708L8.82292 10L5.73958 13.0729C5.66319 13.1493 5.60417 13.2396 5.5625 13.3438C5.52083 13.4479 5.5 13.5556 5.5 13.6667C5.5 13.8958 5.57986 14.0903 5.73958 14.25C5.89931 14.4097 6.09722 14.4931 6.33333 14.5Z" fill="#A4262C"/>
</svg>
