<svg width="20" height="20" viewBox="0 0 20 20" fill="none" xmlns="http://www.w3.org/2000/svg">
<path d="M10.0016 0C15.5253 0 20.0031 4.47784 20.0031 10.0016C20.0031 15.5253 15.5253 20.003 10.0016 20.003C4.47784 20.003 0 15.5253 0 10.0016C0 4.47784 4.47784 0 10.0016 0ZM9.99776 8.25055C9.48486 8.25095 9.06246 8.63725 9.00506 9.13465L8.99836 9.25125L9.00196 14.7529L9.00876 14.8695C9.06686 15.3668 9.48986 15.7526 10.0027 15.7522C10.5155 15.7519 10.9379 15.3655 10.9954 14.8681L11.002 14.7515L10.9984 9.24995L10.9916 9.13335C10.9335 8.63605 10.5106 8.25025 9.99776 8.25055ZM10.002 4.50103C9.31076 4.50103 8.75046 5.06135 8.75046 5.75255C8.75046 6.44375 9.31076 7.00407 10.002 7.00407C10.6932 7.00407 11.2536 6.44375 11.2536 5.75255C11.2536 5.06135 10.6932 4.50103 10.002 4.50103Z" fill="#015CDA"/>
</svg>
