<svg width="20" height="20" viewBox="0 0 20 20" fill="none" xmlns="http://www.w3.org/2000/svg">
<path d="M8.0297 2.16089C8.8859 0.613056 11.1111 0.613036 11.9673 2.16084L19.7131 16.1623C20.5427 17.662 19.4581 19.5015 17.7443 19.5015H2.25323C0.53945 19.5015 -0.54517 17.662 0.28438 16.1624L8.0297 2.16089ZM10.9973 15.5029C10.9973 14.9514 10.5502 14.5042 9.9987 14.5042C9.4471 14.5042 9 14.9514 9 15.5029C9 16.0544 9.4471 16.5016 9.9987 16.5016C10.5502 16.5016 10.9973 16.0544 10.9973 15.5029ZM10.7381 7.6496C10.6882 7.28356 10.3742 7.00166 9.9945 7.00196C9.5802 7.00229 9.2447 7.33835 9.2451 7.75256L9.2487 12.2542L9.2556 12.356C9.3055 12.722 9.6196 13.0039 9.9993 13.0036C10.4135 13.0033 10.749 12.6672 10.7487 12.253L10.7451 7.75136L10.7381 7.6496Z" fill="#DB7500"/>
</svg>
